# xmcd
#
# Track frame offsets: 
#        150
#        17599
#        39078
#        48102
#        66735
#        84091
#        113023
#        144982
#        163232
#        194423
#        220163
#        236948
#        257727
#        286138
#
# Disc length: 4716 seconds
#
# Revision: 0
# Processed by: cddbd v1.4PL0 Copyright (c) Steve Scherf et al.
# Submitted via: ExactAudioCopy v0.95a3
#
DISCID=c0126a0e
DTITLE=Philipp Fankhauser Blues Band - Live - So damn' cool
DYEAR=2003
DGENRE=Blues
TTITLE0=I feel so good
TTITLE1=That's allright
TTITLE2=Introduction (why wrong is right)
TTITLE3=Baby please don't go
TTITLE4=Key to the highway
TTITLE5=Black cat bone
TTITLE6=Soon as the weather breaks
TTITLE7=Early in the morning
TTITLE8=Bring your fine self home
TTITLE9=Ain't nobody's business
TTITLE10=Dedicated
TTITLE11=Life's so damn cool
TTITLE12=I'm so lonesome I could cry
TTITLE13=Data
EXTD=
EXTT0=
EXTT1=
EXTT2=
EXTT3=
EXTT4=
EXTT5=
EXTT6=
EXTT7=
EXTT8=
EXTT9=
EXTT10=
EXTT11=
EXTT12=
EXTT13=
PLAYORDER=
